<svg width="211" height="20" viewBox="0 0 211 20" fill="none" xmlns="http://www.w3.org/2000/svg">
<path fill-rule="evenodd" clip-rule="evenodd" d="M0.000976562 9.99992C0.000976562 4.47712 4.47809 0 10.0009 0H48.1297C52.6098 0 56.4018 2.94618 57.6739 7.00678C57.8805 7.66606 58.4624 8.16325 59.1533 8.16325C59.8442 8.16325 60.4261 7.66608 60.6327 7.0068C61.9049 2.94627 65.6968 0.00016285 70.1769 0.00016285H200.001C205.524 0.00016285 210.001 4.47728 210.001 10.0001C210.001 15.5229 205.524 20 200.001 20H70.1769C65.6968 20 61.9047 17.0538 60.6326 12.9932C60.4261 12.3339 59.8441 11.8367 59.1533 11.8367C58.4624 11.8367 57.8804 12.3339 57.6739 12.9931C56.4017 17.0537 52.6098 19.9998 48.1297 19.9998H10.0009C4.47808 19.9998 0.000976562 15.5227 0.000976562 9.99992ZM119.504 14.5346C118.801 14.5346 118.251 14.4361 117.856 14.2366C117.459 14.0383 117.183 13.7415 117.025 13.3437C116.867 12.9472 116.787 12.457 116.787 11.8708V8.55421C116.787 7.60222 117 6.90024 117.426 6.44949C117.851 5.99874 118.544 5.77214 119.505 5.77214H123.972C124.655 5.77214 125.177 5.80908 125.539 5.88421C125.899 5.9581 126.081 6.03569 126.081 6.11451L125.784 7.34852C125.616 7.31897 125.119 7.28695 124.292 7.25123C123.466 7.21675 122.267 7.1995 120.693 7.1995H119.936C119.144 7.1995 118.749 7.55173 118.749 8.25618V12.0494C118.749 12.3868 118.835 12.6467 119.008 12.8302C119.181 13.0137 119.491 13.1048 119.936 13.1048H120.545C122.188 13.1048 123.462 13.0876 124.368 13.0531C125.273 13.0186 125.835 12.9816 126.052 12.941L126.661 13.9225C126.661 13.9718 126.58 14.0469 126.417 14.1455C126.254 14.2452 125.954 14.3339 125.519 14.4127C125.083 14.4915 124.455 14.5322 123.634 14.5322H119.507L119.504 14.5346ZM86.4014 14.5344V6.97885L86.2531 5.77439H92.8291C93.4628 5.77439 93.9593 5.85937 94.3212 6.02686C94.6819 6.19558 94.9499 6.41603 95.1228 6.6882C95.2958 6.96161 95.4069 7.25102 95.4563 7.55891C95.5057 7.8668 95.5304 8.15868 95.5304 8.43701V9.3151C95.5304 9.54294 95.4959 9.7991 95.4267 10.0811C95.3575 10.3632 95.2291 10.6366 95.0413 10.8989C94.8536 11.1612 94.5806 11.3804 94.2249 11.5528C93.8691 11.7265 93.4035 11.8127 92.8291 11.8127H91.3148C90.6911 11.8127 90.1093 11.7979 89.5708 11.7684C89.031 11.7388 88.6284 11.7142 88.3616 11.6945V14.5357H86.4026L86.4014 14.5344ZM88.3603 10.3841H92.3981C92.844 10.3841 93.1503 10.2745 93.3183 10.0565C93.4862 9.83851 93.5702 9.57619 93.5702 9.2683V8.33109C93.5702 8.01335 93.4862 7.7461 93.3183 7.52812C93.1503 7.31014 92.8477 7.20053 92.4129 7.20053H88.3603V10.3841ZM72.239 14.5346C71.5658 14.5346 71.0718 14.505 70.7543 14.4459C70.4381 14.3868 70.2788 14.3166 70.2788 14.2378L70.8729 12.9434C71.1002 12.9828 71.6671 13.0198 72.5725 13.0555C73.4779 13.09 74.7229 13.1072 76.3064 13.1072H76.588C77.0129 13.1072 77.3155 13.0309 77.4934 12.8769C77.6712 12.723 77.7602 12.4631 77.7602 12.0961V11.7981C77.7602 11.4508 77.6885 11.2032 77.5453 11.0542C77.402 10.9052 77.0821 10.8313 76.588 10.8313H73.1444C72.1451 10.8313 71.4176 10.6454 70.9619 10.2734C70.5061 9.9015 70.2788 9.29434 70.2788 8.45073V8.21304C70.2788 7.77707 70.3603 7.37559 70.5234 7.00858C70.6864 6.64158 70.9656 6.34724 71.362 6.1231C71.7573 5.90019 72.302 5.78812 72.9949 5.78812H77.0327C77.7058 5.78812 78.2493 5.8226 78.6656 5.8928C79.0818 5.96177 79.2893 6.03689 79.2893 6.11571L78.9929 7.36573C78.736 7.33618 78.1517 7.30416 77.2414 7.26844C76.3311 7.23396 75.1083 7.21672 73.5742 7.21672L73.4112 7.20194C72.9554 7.20194 72.6491 7.2943 72.491 7.47657C72.3329 7.66007 72.2477 7.89038 72.239 8.16871V8.42117C72.239 8.74877 72.3304 8.99384 72.5132 9.15764C72.696 9.32144 73.0011 9.40272 73.426 9.40272H76.7214C77.355 9.40272 77.8948 9.46676 78.3395 9.59607C78.7854 9.72539 79.1263 9.96061 79.3634 10.303C79.6006 10.6454 79.7191 11.1491 79.7191 11.8129V12.0506C79.7191 12.7944 79.5289 13.3942 79.1473 13.8499C78.7656 14.3055 78.106 14.5346 77.1661 14.5346H72.239ZM104.332 5.78816L99.9833 14.5346H102.15L103.114 12.6454H108.429L109.305 14.5346H111.591L107.257 5.78816H104.332ZM107.881 11.1885H103.652L105.7 7.12809H105.848L107.881 11.1885ZM132.597 5.78816V14.5346H140.702C141.355 14.5346 141.816 14.5174 142.083 14.4829C142.349 14.4472 142.483 14.4103 142.483 14.3708L141.889 13.106H134.555V10.7415H140.108V9.26853H134.555V7.21553H141.829V5.78816H132.597ZM151.404 14.5344L151.389 7.20179H147.529V5.77442H157.238V7.20179H153.363V14.5344H151.404ZM163.175 5.78816V14.5346H165.134V5.78816H163.175ZM172.112 14.5347V6.97916L171.963 5.78948H174.22L177.575 11.7391L181.048 5.78948H183.051V14.536H181.092V8.98782H180.929L180.35 10.2822L178.48 13.6443H176.684L174.814 10.2822L174.22 8.98782H174.072V14.536H172.113L172.112 14.5347ZM189.881 5.78816V14.5346H197.986C198.639 14.5346 199.1 14.5174 199.367 14.4829C199.634 14.4472 199.767 14.4103 199.767 14.3708L199.173 13.106H191.84V10.7415H197.392V9.26853H191.84V7.21553H199.114V5.78816H189.881ZM13.0926 7.6498V9.76483V9.76596L10.2643 10.9046L13.0926 12.049V14.1663L7.57486 11.9934H7.56348V9.82386H7.57486L13.0926 7.6498ZM45.2378 14.0539V11.94L48.0639 10.8025L45.2378 9.66493V7.5499L50.7476 9.72169H50.7612V11.8935H50.7476L45.2378 14.0539ZM42.8718 4.56072L39.6313 15.5763H41.5556L44.7961 4.56072H42.8718ZM22.0022 9.5889C22.0363 8.72722 21.7483 7.88711 21.2006 7.25022H21.2017C20.9308 6.94937 20.6017 6.71323 20.2374 6.5577C19.873 6.40217 19.4825 6.33178 19.0896 6.34881C18.6684 6.32951 18.2482 6.40217 17.8542 6.56111C17.4603 6.72004 17.1005 6.96299 16.7988 7.27406V6.57814H14.8745V14.281H16.7988V10.8695C16.7988 9.09959 17.4011 8.21521 18.6057 8.21521C18.8073 8.20613 19.0088 8.24586 19.1944 8.33101C19.3788 8.41615 19.5439 8.54557 19.676 8.70792C19.9573 9.07915 20.1007 9.54575 20.0779 10.0203V14.281H22.0022V9.5889ZM24.4516 3.37449V14.3901H26.3758V3.37449H24.4516ZM35.6426 13.9859H37.2469L39.9465 6.26945H37.8902L36.3747 10.8991L34.8137 6.26945H33.313L31.752 10.8844L30.2365 6.26945H28.1802L30.8775 13.9859H32.4807L34.069 9.44823L35.6426 13.9859Z" fill="url(#paint0_linear_206_683)"/>
<defs>
<linearGradient id="paint0_linear_206_683" x1="3.48052" y1="-6.6526" x2="236.327" y2="-6.6526" gradientUnits="userSpaceOnUse">
<stop offset="0.251308" stop-color="#996DFF"/>
<stop offset="0.623787" stop-color="#FF876E"/>
<stop offset="1" stop-color="#FFD072"/>
</linearGradient>
</defs>
</svg>
